<svg xmlns="http://www.w3.org/2000/svg" viewBox="0 0 319.17 78.26"><defs><style>.cls-1{fill:#1e1e1c;}.cls-2{fill:#eeeded;}.cls-3{fill:#fab334;}</style></defs><title>Layer 2</title><g id="Layer_2" data-name="Layer 2"><g id="Layer_1-2" data-name="Layer 1"><g id="Layer_2-2" data-name="Layer 2"><g id="Layer_1-2-2" data-name="Layer 1-2"><path class="cls-1" d="M0,78V54.58H9.72a5.89,5.89,0,0,1,2.79.64,7.27,7.27,0,0,1,2.17,1.69,8,8,0,0,1,1.46,2.36,7.1,7.1,0,0,1,.55,2.65,7.7,7.7,0,0,1-.5,2.8,7.59,7.59,0,0,1-1.38,2.36,7.14,7.14,0,0,1-2.13,1.65,6.06,6.06,0,0,1-2.77.64H2.31V78ZM2.31,67.33H9.82a3.86,3.86,0,0,0,1.86-.44,4.48,4.48,0,0,0,1.44-1.19A5.39,5.39,0,0,0,14,64a6.27,6.27,0,0,0,.34-2.06A5.76,5.76,0,0,0,13,58.15,4.58,4.58,0,0,0,11.45,57a4.16,4.16,0,0,0-1.83-.42H2.31Z"/><path class="cls-1" d="M23.86,78V54.58h2.31V78Z"/><path class="cls-1" d="M35.2,54.58l7.7,10.21,7.7-10.21h2.55l-9,11.9L52.88,78H50.33L42.9,68.13,35.46,78H32.85l8.76-11.56-9-11.9Z"/><path class="cls-1" d="M75.33,76v2H59.55V54.58H75v2.05H61.87v8.48H73.36V67H61.87V76Z"/><path class="cls-1" d="M83,78V54.58H85.3V76H98.85v2Z"/><path class="cls-1" d="M114.15,54.58h1.95L125.85,78h-2.44l-3-7.34H109.8l-3,7.34h-2.48Zm5.69,14.31-4.73-11.6-4.79,11.6Z"/><path class="cls-1" d="M132.53,78V54.58h2.31V76h13.55v2Z"/><path class="cls-1" d="M172.75,72a5.59,5.59,0,0,1-.53,2.44,6.19,6.19,0,0,1-1.42,1.91,6.39,6.39,0,0,1-2.08,1.28,7.22,7.22,0,0,1-2.56.44h-11V54.58h11.3a4.63,4.63,0,0,1,2.22.53,5.45,5.45,0,0,1,1.68,1.37,6.38,6.38,0,0,1,1.08,1.92,6.58,6.58,0,0,1,.37,2.16,6.15,6.15,0,0,1-.88,3.26A5.63,5.63,0,0,1,168.4,66a5.87,5.87,0,0,1,3.19,2.22A6.27,6.27,0,0,1,172.75,72ZM157.43,56.6v8.65h8.07a3.57,3.57,0,0,0,1.6-.36,4.14,4.14,0,0,0,1.28-1,4.24,4.24,0,0,0,.78-1.37,4.19,4.19,0,0,0,.3-1.64,4.82,4.82,0,0,0-.28-1.68,4,4,0,0,0-2-2.3,3.32,3.32,0,0,0-1.52-.34Zm13,15a5,5,0,0,0-.29-1.67,4.34,4.34,0,0,0-.84-1.42,4.54,4.54,0,0,0-1.28-1,3.34,3.34,0,0,0-1.6-.38h-9V76h8.76a3.84,3.84,0,0,0,1.67-.37,4.19,4.19,0,0,0,1.35-1,4.88,4.88,0,0,0,.92-1.42,4.56,4.56,0,0,0,.33-1.67Z"/><path class="cls-1" d="M187.19,54.58h1.95L198.89,78h-2.44l-3-7.34H182.86l-3,7.34h-2.49Zm5.69,14.31-4.73-11.6-4.79,11.6Z"/><path class="cls-1" d="M219.91,56.63h-8.36V78h-2.31V56.63h-8.36V54.58h19Z"/><path class="cls-1" d="M226.72,78V54.58h9.91a5.93,5.93,0,0,1,2.8.64,7,7,0,0,1,2.19,1.68,7.76,7.76,0,0,1,1.44,2.36,7.47,7.47,0,0,1,.52,2.68,7.86,7.86,0,0,1-.39,2.46,7.52,7.52,0,0,1-1.06,2.12,6.48,6.48,0,0,1-1.63,1.59,5.77,5.77,0,0,1-2.15.87L244.1,78h-2.61L236,69.38H229V78ZM229,67.33h7.66a3.93,3.93,0,0,0,1.87-.44A4.4,4.4,0,0,0,240,65.68a5.63,5.63,0,0,0,.93-1.72,6,6,0,0,0,.33-2,5.78,5.78,0,0,0-1.4-3.74,4.89,4.89,0,0,0-1.52-1.15,4,4,0,0,0-1.83-.43H229Z"/><path class="cls-1" d="M261.09,78.21a9.88,9.88,0,0,1-4.47-1,11,11,0,0,1-3.49-2.68,12.24,12.24,0,0,1-2.25-3.83,12.62,12.62,0,0,1-.79-4.39,12,12,0,0,1,.84-4.47A12.54,12.54,0,0,1,253.26,58a11.52,11.52,0,0,1,3.5-2.62,9.82,9.82,0,0,1,4.33-1,9.71,9.71,0,0,1,4.46,1A11.27,11.27,0,0,1,269,58.18,12.55,12.55,0,0,1,271.25,62a12.24,12.24,0,0,1,0,8.81,12.4,12.4,0,0,1-2.32,3.79,11.13,11.13,0,0,1-3.48,2.61A10,10,0,0,1,261.09,78.21Zm-8.69-11.9A10.81,10.81,0,0,0,253,70a10.08,10.08,0,0,0,1.78,3.14,9,9,0,0,0,2.75,2.18,8,8,0,0,0,7.13,0A8.81,8.81,0,0,0,267.45,73a10.48,10.48,0,0,0,1.73-3.14,10.83,10.83,0,0,0,.64-3.57,10.52,10.52,0,0,0-.64-3.68,10.29,10.29,0,0,0-1.8-3.13,8.9,8.9,0,0,0-2.75-2.16,8,8,0,0,0-7.1,0,8.86,8.86,0,0,0-2.75,2.23,11.49,11.49,0,0,0-2.41,6.71Z"/><path class="cls-1" d="M293.44,59a7,7,0,0,0-2.64-1.81,9.56,9.56,0,0,0-3.77-.7,7,7,0,0,0-4.52,1.18,3.92,3.92,0,0,0-1.43,3.19,3.46,3.46,0,0,0,.39,1.73,3.23,3.23,0,0,0,1.17,1.18,7.9,7.9,0,0,0,2,.86c.83.24,1.8.48,2.93.72a33.88,33.88,0,0,1,3.39.9,9.84,9.84,0,0,1,2.55,1.23,5.31,5.31,0,0,1,1.62,1.81,5.61,5.61,0,0,1,.56,2.64,5.83,5.83,0,0,1-.64,2.81,5.49,5.49,0,0,1-1.75,2,7.93,7.93,0,0,1-2.68,1.17,14.35,14.35,0,0,1-3.4.38,14,14,0,0,1-9.41-3.4L279,72.93a8.75,8.75,0,0,0,1.5,1.28,11.42,11.42,0,0,0,1.95,1,11.9,11.9,0,0,0,2.3.69,12.21,12.21,0,0,0,2.56.25,8,8,0,0,0,4.37-1,3.37,3.37,0,0,0,1.57-3.05,3.52,3.52,0,0,0-.44-1.83A3.91,3.91,0,0,0,291.46,69a9.47,9.47,0,0,0-2.22-1c-.88-.26-1.91-.53-3.07-.79s-2.31-.58-3.24-.89a8.67,8.67,0,0,1-2.34-1.16,4.49,4.49,0,0,1-1.45-1.67,5.32,5.32,0,0,1-.47-2.39,6.62,6.62,0,0,1,.63-2.9,5.84,5.84,0,0,1,1.75-2.1,8.11,8.11,0,0,1,2.65-1.27,12,12,0,0,1,3.37-.45,11.71,11.71,0,0,1,4.18.71,11.49,11.49,0,0,1,3.32,2Z"/><path class="cls-1" d="M316.81,59a7,7,0,0,0-2.65-1.81,9.48,9.48,0,0,0-3.76-.7,7,7,0,0,0-4.53,1.18,3.88,3.88,0,0,0-1.42,3.19,3.45,3.45,0,0,0,.38,1.73A3.33,3.33,0,0,0,306,63.74a7.75,7.75,0,0,0,2,.86c.82.24,1.8.48,2.92.72a33.18,33.18,0,0,1,3.39.9,9.84,9.84,0,0,1,2.55,1.23,5.21,5.21,0,0,1,1.62,1.81,5.62,5.62,0,0,1,.57,2.64,5.94,5.94,0,0,1-.64,2.81,5.68,5.68,0,0,1-1.75,2,8,8,0,0,1-2.63,1.18,14.5,14.5,0,0,1-3.41.38,14,14,0,0,1-9.42-3.4l1.16-1.92a8.82,8.82,0,0,0,1.51,1.28,11,11,0,0,0,1.94,1,12.22,12.22,0,0,0,2.3.7,12.89,12.89,0,0,0,2.55.25,8.14,8.14,0,0,0,4.38-1,3.4,3.4,0,0,0,1.54-3.07,3.45,3.45,0,0,0-.45-1.83A3.82,3.82,0,0,0,314.83,69a9.8,9.8,0,0,0-2.21-.94c-.88-.26-1.92-.53-3.07-.79a30.84,30.84,0,0,1-3.24-.9A8.55,8.55,0,0,1,304,65.24a4.54,4.54,0,0,1-1.38-1.69,5.35,5.35,0,0,1-.48-2.4,6.59,6.59,0,0,1,.64-2.89,5.68,5.68,0,0,1,1.68-2.09,8.06,8.06,0,0,1,2.64-1.27,12,12,0,0,1,3.37-.45,11.67,11.67,0,0,1,4.18.71,11.41,11.41,0,0,1,3.33,2Z"/><polygon class="cls-1" points="241.02 0.34 185.64 39.34 213.8 5.09 241.02 0.34"/><polygon class="cls-1" points="232.6 6.28 241.02 0.34 262.55 12.74 246.12 17.86 232.6 6.28"/><polygon class="cls-1" points="278.15 4.84 267.36 11.94 285.53 14.59 289.33 6.98 302.44 3.74 313.12 30.42 319.18 21.32 316.12 0 278.15 4.84"/><polygon class="cls-1" points="224.35 27.14 236.23 23.45 232.84 29.42 224.35 27.14"/><polygon class="cls-2" points="237.7 22.97 265.34 14.36 297.99 19.12 300.06 24.59 296.97 31.48 256.06 34.82 233.96 29.75 237.7 22.97"/><polygon class="cls-3" points="300.43 25.53 301.44 28.21 303.66 30.05 307.8 31.51 307.8 35.05 306.01 38.26 304.11 35.05 300.43 33.62 298.28 30.65 300.43 25.53"/><polygon class="cls-1" points="290.73 20.63 296.93 24.14 291.9 24.14 290.73 20.63"/></g></g></g></g></svg>